<svg width="19" height="42" viewBox="0 0 19 42" fill="none" xmlns="http://www.w3.org/2000/svg">
        <path d="M18.1844 7.58507C18.1844 7.33433 18.1392 7.08358 18.0489 6.89552C17.5971 5.70448 17.1001 4.51343 16.6031 3.2597C16.6483 3.19702 16.6483 3.13433 16.6935 3.13433C17.1905 2.50746 17.326 1.81791 17.1453 1.12836C16.9194 0.376119 16.5128 0 15.8351 0C14.5249 0 13.2599 0 11.9497 0C11.8142 0 11.7238 0 11.5431 0H6.88963C6.70892 0 6.57338 0 6.43784 0C6.39266 0 6.39266 0 6.34748 0H4.81139C3.99817 0 3.18495 0 2.37172 0C1.73921 0 1.19706 0.752239 1.15189 1.62985C1.10671 2.3194 1.37778 2.8209 1.78439 3.2597C1.28742 4.45075 0.835632 5.70448 0.338662 6.89552C0.248304 7.08358 0.203125 7.27164 0.203125 7.4597C0.203125 17.1134 0.203125 26.8298 0.203125 36.4836C0.203125 36.6716 0.293483 36.9851 0.429021 37.1104C1.06153 37.8 1.64886 38.4896 2.28136 39.1791C2.59762 39.4925 2.77833 39.806 2.73315 40.4328C2.68798 41.3731 3.18495 42 3.77228 42C7.34142 42 10.9106 42 14.5249 42C14.796 42 15.0671 41.7493 15.2929 41.4985C15.564 41.1851 15.6092 40.6836 15.6092 40.1821C15.564 39.806 15.6996 39.5552 15.8803 39.3672C16.558 38.6776 17.1905 37.9254 17.8682 37.2358C18.0489 37.0478 18.1392 36.797 18.1392 36.4836C18.1844 26.7672 18.2296 17.1761 18.1844 7.58507ZM2.73315 0.877612C7.07035 0.877612 11.4075 0.877612 15.6996 0.877612C15.7899 0.877612 15.8803 0.877612 15.9706 0.877612C16.3321 0.940298 16.558 1.31642 16.558 1.75522C16.558 2.19403 16.2869 2.57015 15.9255 2.57015C15.0219 2.57015 14.1183 2.57015 13.2147 2.57015C11.8593 2.57015 10.504 2.57015 9.14859 2.57015C6.97999 2.57015 4.85657 2.57015 2.68798 2.57015C2.05547 2.57015 1.78439 2.3194 1.78439 1.75522C1.87475 1.19104 2.14583 0.877612 2.73315 0.877612ZM1.3326 6.39403C1.64886 5.51642 2.01029 4.70149 2.32654 3.82388C2.46208 3.51045 2.59762 3.44776 2.82351 3.44776C7.11553 3.44776 11.3624 3.44776 15.6544 3.44776C15.8803 3.44776 16.0158 3.57313 16.1062 3.82388C16.4676 4.82687 16.8742 5.76716 17.2808 6.77015C11.9045 6.77015 6.57338 6.77015 1.19707 6.77015C1.24224 6.64478 1.28742 6.5194 1.3326 6.39403ZM14.299 41.1224C10.9558 41.1224 7.56732 41.1224 4.22407 41.1224C3.54638 41.1224 3.45602 40.9343 3.5012 39.9313C7.34142 39.9313 11.1365 39.9313 14.9767 39.9313C15.1122 40.809 14.9315 41.1224 14.299 41.1224ZM15.2929 38.8657C15.2026 38.9284 15.1122 38.9284 14.9767 38.9284C11.1365 38.9284 7.29625 38.9284 3.45602 38.9284C3.32048 38.9284 3.18495 38.8657 3.09459 38.7403C2.59762 38.2388 2.10065 37.6746 1.5585 37.0478C6.70892 37.0478 11.769 37.0478 16.9194 37.0478C16.3321 37.8 15.8351 38.3642 15.2929 38.8657ZM17.5067 36.2328C11.9949 36.2328 6.48302 36.2328 0.97117 36.2328C0.97117 26.7672 0.97117 17.3015 0.97117 7.83582C6.48302 7.83582 11.9949 7.83582 17.5067 7.83582C17.5067 17.3015 17.5067 26.7045 17.5067 36.2328Z" fill="black"></path>
        </svg>