<svg width="25" height="46" viewBox="0 0 25 46" fill="none" xmlns="http://www.w3.org/2000/svg">
        <path d="M24.1782 8.59696C24.1782 8.32775 24.1179 8.05853 23.9975 7.85662C23.3951 6.57783 22.7324 5.29905 22.0698 3.95296C22.1301 3.88565 22.1301 3.81835 22.1903 3.81835C22.8529 3.1453 23.0336 2.40495 22.7927 1.6646C22.4915 0.856951 21.9493 0.453125 21.0458 0.453125C19.2988 0.453125 17.6121 0.453125 15.8652 0.453125C15.6845 0.453125 15.564 0.453125 15.3231 0.453125H9.11847C8.87751 0.453125 8.6968 0.453125 8.51608 0.453125C8.45584 0.453125 8.45584 0.453125 8.3956 0.453125H6.34748C5.26319 0.453125 4.17889 0.453125 3.09459 0.453125C2.25124 0.453125 1.52838 1.26078 1.46814 2.20304C1.4079 2.94339 1.76933 3.48183 2.31148 3.95296C1.64886 5.23174 1.04647 6.57783 0.383841 7.85662C0.263363 8.05853 0.203125 8.26044 0.203125 8.46236C0.203125 18.8272 0.203125 29.2594 0.203125 39.6243C0.203125 39.8262 0.323603 40.1628 0.504319 40.2974C1.34766 41.0377 2.13077 41.7781 2.97411 42.5184C3.39578 42.8549 3.63674 43.1915 3.5765 43.8645C3.51626 44.8741 4.17889 45.5471 4.96199 45.5471C9.72086 45.5471 14.4797 45.5471 19.2988 45.5471C19.6603 45.5471 20.0217 45.2779 20.3229 45.0087C20.6843 44.6722 20.7446 44.1337 20.7446 43.5953C20.6843 43.1915 20.865 42.9222 21.106 42.7203C22.0096 41.98 22.8529 41.1723 23.7565 40.432C23.9975 40.2301 24.1179 39.9608 24.1179 39.6243C24.1782 29.1921 24.2384 18.8945 24.1782 8.59696ZM3.5765 1.39539C9.35942 1.39539 15.1424 1.39539 20.865 1.39539C20.9855 1.39539 21.106 1.39539 21.2265 1.39539C21.7084 1.46269 22.0096 1.86652 22.0096 2.33765C22.0096 2.80878 21.6481 3.21261 21.1662 3.21261C19.9615 3.21261 18.7567 3.21261 17.5519 3.21261C15.7447 3.21261 13.9376 3.21261 12.1304 3.21261C9.23895 3.21261 6.40772 3.21261 3.51626 3.21261C2.67292 3.21261 2.31148 2.94339 2.31148 2.33765C2.43196 1.73191 2.79339 1.39539 3.5765 1.39539ZM1.7091 7.31818C2.13077 6.37592 2.61268 5.50096 3.03435 4.5587C3.21507 4.22218 3.39578 4.15487 3.69698 4.15487C9.41966 4.15487 15.0821 4.15487 20.8048 4.15487C21.106 4.15487 21.2867 4.28948 21.4072 4.5587C21.8891 5.63557 22.4312 6.64513 22.9734 7.72201C15.805 7.72201 8.6968 7.72201 1.52838 7.72201C1.58862 7.5874 1.64886 7.45279 1.7091 7.31818ZM18.9976 44.6049C14.54 44.6049 10.0221 44.6049 5.56438 44.6049C4.6608 44.6049 4.54032 44.4029 4.60056 43.3261C9.72086 43.3261 14.7809 43.3261 19.9012 43.3261C20.0819 44.2683 19.841 44.6049 18.9976 44.6049ZM20.3229 42.1819C20.2024 42.2492 20.0819 42.2492 19.9012 42.2492C14.7809 42.2492 9.66062 42.2492 4.54032 42.2492C4.3596 42.2492 4.17889 42.1819 4.05841 42.0473C3.39578 41.5089 2.73316 40.9031 2.01029 40.2301C8.87751 40.2301 15.6243 40.2301 22.4915 40.2301C21.7084 41.0377 21.0458 41.6435 20.3229 42.1819ZM23.2746 39.3551C15.9255 39.3551 8.57632 39.3551 1.22719 39.3551C1.22719 29.1921 1.22719 19.0292 1.22719 8.86618C8.57632 8.86618 15.9255 8.86618 23.2746 8.86618C23.2746 19.0292 23.2746 29.1248 23.2746 39.3551Z" fill="#091D4F"></path>
        </svg>