<svg width="21" height="32" viewBox="0 0 21 32" fill="none" xmlns="http://www.w3.org/2000/svg">
        <path d="M20.1823 5.7791C20.1823 5.58806 20.1321 5.39701 20.0317 5.25373C19.5297 4.34627 18.9776 3.43881 18.4254 2.48358C18.4756 2.43582 18.4756 2.38806 18.5258 2.38806C19.078 1.91045 19.2285 1.38507 19.0278 0.859701C18.7768 0.286567 18.325 0 17.572 0C16.1162 0 14.7106 0 13.2549 0C13.1043 0 13.0039 0 12.8031 0H7.63258C7.43178 0 7.28118 0 7.13059 0C7.08039 0 7.08039 0 7.03019 0H5.32342C4.41984 0 3.51626 0 2.61268 0C1.90989 0 1.3075 0.573134 1.2573 1.24179C1.2071 1.76716 1.5083 2.14925 1.96009 2.48358C1.4079 3.39105 0.905911 4.34627 0.353722 5.25373C0.253324 5.39701 0.203125 5.5403 0.203125 5.68358C0.203125 13.0388 0.203125 20.4418 0.203125 27.797C0.203125 27.9403 0.303523 28.1791 0.45412 28.2746C1.15691 28.8 1.80949 29.3254 2.51228 29.8507C2.86367 30.0896 3.06447 30.3284 3.01427 30.806C2.96407 31.5224 3.51626 32 4.16885 32C8.13457 32 12.1003 32 16.1162 32C16.4174 32 16.7186 31.809 16.9696 31.6179C17.2708 31.3791 17.321 30.997 17.321 30.6149C17.2708 30.3284 17.4214 30.1373 17.6222 29.994C18.3752 29.4687 19.078 28.8955 19.8309 28.3701C20.0317 28.2269 20.1321 28.0358 20.1321 27.797C20.1823 20.394 20.2325 13.0866 20.1823 5.7791ZM3.01427 0.668657C7.83337 0.668657 12.6525 0.668657 17.4214 0.668657C17.5218 0.668657 17.6222 0.668657 17.7226 0.668657C18.1242 0.716418 18.3752 1.00298 18.3752 1.33731C18.3752 1.67164 18.074 1.95821 17.6724 1.95821C16.6684 1.95821 15.6644 1.95821 14.6604 1.95821C13.1545 1.95821 11.6485 1.95821 10.1425 1.95821C7.73298 1.95821 5.37362 1.95821 2.96407 1.95821C2.26128 1.95821 1.96009 1.76716 1.96009 1.33731C2.06049 0.907462 2.36168 0.668657 3.01427 0.668657ZM1.4581 4.87164C1.80949 4.20299 2.21109 3.58209 2.56248 2.91343C2.71308 2.67463 2.86367 2.62687 3.11467 2.62687C7.88357 2.62687 12.6023 2.62687 17.3712 2.62687C17.6222 2.62687 17.7728 2.72239 17.8732 2.91343C18.2748 3.67761 18.7266 4.39403 19.1784 5.15821C13.2047 5.15821 7.28119 5.15821 1.3075 5.15821C1.3577 5.06269 1.4079 4.96716 1.4581 4.87164ZM15.8652 31.3313C12.1505 31.3313 8.38556 31.3313 4.67084 31.3313C3.91785 31.3313 3.81745 31.1881 3.86765 30.4239C8.13457 30.4239 12.3513 30.4239 16.6182 30.4239C16.7688 31.0925 16.568 31.3313 15.8652 31.3313ZM16.9696 29.6119C16.8692 29.6597 16.7688 29.6597 16.6182 29.6597C12.3513 29.6597 8.08437 29.6597 3.81745 29.6597C3.66686 29.6597 3.51626 29.6119 3.41586 29.5164C2.86367 29.1343 2.31148 28.7045 1.7091 28.2269C7.43178 28.2269 13.0541 28.2269 18.7768 28.2269C18.1242 28.8 17.572 29.2299 16.9696 29.6119ZM19.4293 27.606C13.3051 27.606 7.18079 27.606 1.05651 27.606C1.05651 20.394 1.05651 13.1821 1.05651 5.97015C7.18079 5.97015 13.3051 5.97015 19.4293 5.97015C19.4293 13.1821 19.4293 20.3463 19.4293 27.606Z" fill="#004CBE"></path>
        </svg>