<svg width="25" height="51" viewBox="0 0 25 51" fill="none" xmlns="http://www.w3.org/2000/svg"><g clip-path="url(#clip0_1_4)"><path d="M0.588657 50.7185C2.77788 35.8295 8.30894 5.34721 12.9194 2.5308C17.5298 -0.28561 20.999 1.90963 22.1574 3.3593C23.2454 4.39482 24.8025 8.4827 22.3262 16.5501C19.8498 24.6176 13.5629 44.1719 10.7289 52.9406" stroke="#091D4F" stroke-width="1.08179"></path><path d="M5.42726 53.9444C7.3407 44.2767 11.3272 23.5178 11.9659 17.8235C12.6046 12.1292 12.4366 9.03772 12.2728 8.20376C14.3799 8.03804 19.1099 8.21975 21.1733 10.2723C20.1524 12.0952 17.7923 16.8747 16.5191 21.4103L4.48574 58.5014" stroke="#091D4F" stroke-width="1.08179"></path><path d="M15.6022 4.6758C14.3954 5.14438 10.9268 6.24219 12.3557 8.41567" stroke="#091D4F" stroke-linecap="round"></path>
        <path d="M19.9762 5.63976C20.8877 6.60067 22.4587 8.91335 21.4506 10.4768" stroke="#091D4F" stroke-linecap="round"></path>
        </g><defs><clipPath id="clip0_1_4"><rect width="51" height="25" fill="white" transform="translate(0 51) rotate(-90)"></rect></clipPath></defs></svg>