<svg width="52" height="70" viewBox="0 0 52 70" fill="none" xmlns="http://www.w3.org/2000/svg">
        <path d="M3.98834 62.5547C5.41296 43.8594 10.8808 5.85964 21.3552 3.42224C31.8295 0.984831 40.8413 4.73435 44.0379 6.91379C46.9551 8.53884 51.8122 14.2369 47.9029 24.0288C43.9936 33.8207 33.8255 57.4802 29.2302 68.086" stroke="#091D4F" stroke-width="1.26572"></path>
        <path d="M16.4858 64.9579C18.7685 53.6264 23.3853 29.2656 23.5908 22.4746C23.7963 15.6835 22.7073 11.8735 22.1371 10.8173C27.0144 11.1192 38.0877 12.4721 43.3632 15.4686C41.3932 17.4473 36.9663 22.7112 35.0194 27.9375L15.3175 70.2896" stroke="#091D4F" stroke-width="1.26572" stroke-linecap="round" stroke-linejoin="round"></path>
        <path d="M26.4189 6.17196C24.8281 6.75434 20.2558 8.11877 22.1394 10.8201" stroke="#091D4F" stroke-width="1.24287" stroke-linecap="round"></path>
        <path d="M41.6308 10.3781C41.4198 10.1683 41.4188 9.82721 41.6285 9.61618C41.8383 9.40515 42.1794 9.40412 42.3904 9.61388L41.6308 10.3781ZM44.1256 15.5325L43.801 15.9625L42.941 15.3134L43.2655 14.8833L44.1256 15.5325ZM42.3904 9.61388C42.9529 10.173 43.6985 11.156 44.1614 12.2117C44.6091 13.2326 44.8798 14.5332 44.1256 15.5325L43.2655 14.8833C43.6428 14.3835 43.5918 13.5959 43.1746 12.6444C42.7726 11.7277 42.11 10.8544 41.6308 10.3781L42.3904 9.61388Z" fill="#091D4F"></path>
        </svg>