<svg width="34" height="70" viewBox="0 0 34 70" fill="none" xmlns="http://www.w3.org/2000/svg">
        <path d="M-1.09115 62.0841C1.18663 43.5759 7.56651 5.77609 14.8638 2.64219C22.1612 -0.491716 28.0303 2.56886 30.0527 4.49088C31.9238 5.8866 34.8298 11.1569 31.4846 21.0725C28.1394 30.988 19.5652 54.9969 15.6962 65.762" stroke="#004CBE" stroke-width="1.26572"></path>
         <path d="M7.24301 63.5739C9.58923 52.2563 14.4355 27.9459 15.0506 21.2447C15.6657 14.5434 15.1914 10.8681 14.8774 9.86811C18.1747 9.82365 25.6143 10.3799 28.994 12.9608C27.5151 15.0472 24.1347 20.5404 22.4443 25.8229L6.0749 68.9057" stroke="#004CBE" stroke-width="1.26572" stroke-linecap="square" stroke-linejoin="round"></path>
          <path d="M18.651 6.36765C17.237 6.8853 13.173 8.09806 14.8473 10.4991" stroke="#004CBE" stroke-width="1.10471" stroke-linecap="round"></path>
           <path d="M27.3128 7.67963C27.1024 7.47052 27.1014 7.13047 27.3105 6.9201C27.5196 6.70973 27.8597 6.70871 28.07 6.91781L27.3128 7.67963ZM29.7997 12.8179L29.4762 13.2466L28.6188 12.5995L28.9424 12.1708L29.7997 12.8179ZM28.07 6.91781C28.6307 7.47515 29.374 8.45515 29.8355 9.50752C30.2818 10.5253 30.5516 11.8218 29.7997 12.8179L28.9424 12.1708C29.3185 11.6726 29.2677 10.8873 28.8518 9.9389C28.451 9.02507 27.7905 8.15443 27.3128 7.67963L28.07 6.91781Z" fill="#004CBE"></path>
        </svg>