<svg width="32" height="61" viewBox="0 0 32 61" fill="none" xmlns="http://www.w3.org/2000/svg">
        <path d="M2.19922 52.6812C4.31217 36.8989 9.94346 4.63087 15.5651 1.81779C21.1867 -0.995284 25.5941 1.48737 27.095 3.08033C28.4915 4.2289 30.597 8.65066 27.8467 17.1491C25.0964 25.6476 18.0757 46.235 14.9092 55.4664" stroke="#091D4F" stroke-width="1.08179"></path>
         <path d="M8.51601 53.7825C10.5341 44.1124 14.7218 23.3445 15.3272 17.6345C15.9326 11.9244 15.6465 8.80929 15.4278 7.96548C17.9399 7.86054 23.5945 8.18203 26.1157 10.3075C24.9467 12.1115 22.26 16.8508 20.8646 21.3765L7.51743 58.3395" stroke="#091D4F" stroke-width="1.08179"></path>
        <path d="M18.959 4.43361C17.679 4.90219 14.0002 6 15.5157 8.17349" stroke="#091D4F" stroke-linecap="round"></path>
        <path d="M24.6566 5.39757C25.6234 6.35848 27.2895 8.67116 26.2204 10.2346" stroke="#091D4F" stroke-linecap="round"></path>
        </svg>