<?xml version="1.0" encoding="utf-8"?>
<svg version="1.1" baseProfile="tiny" id="Layer_1" x="0px" y="0px" viewBox="0 0 1400 980" overflow="scroll" xmlns="http://www.w3.org/2000/svg">
  <defs>
    <linearGradient gradientUnits="userSpaceOnUse" x1="277.24" y1="237.081" x2="277.24" y2="306.381" id="gradient-0" gradientTransform="matrix(0.987869, -0.155288, 0.144536, 0.919456, -35.743341, 156.921892)">
      <stop offset="0" style="stop-opacity: 0.08;"/>
      <stop offset="1" style="stop-color: rgb(215, 215, 215); stop-opacity: 0.66;"/>
    </linearGradient>
    <linearGradient gradientUnits="userSpaceOnUse" x1="279.33" y1="439.565" x2="279.33" y2="543.765" id="gradient-1" gradientTransform="matrix(-0.168076, 0.985764, -1.904954, -0.324795, 1210.658212, 305.110135)">
      <stop offset="0" style="stop-color: rgb(229, 231, 231); stop-opacity: 0.71;"/>
      <stop offset="1" style="stop-opacity: 0.14;"/>
    </linearGradient>
  </defs>
  <g>
    <g transform="matrix(1, 0, 0, 1, 248.632921, 200.064073)">
      <path fill-rule="evenodd" d="M426.8,363.6c0.1-0.4,0.2-0.7,0.2-1.1v52.1c0,27.8-66.4,50.3-148.4,50.3&#10;&#9;&#9;&#9;&#9;c-82,0-148.4-22.5-148.4-50.3v-53.9v0.3c1.4,45,141.8,50,148.4,50C300.2,411,420,404.6,426.8,363.6" fill="#99CCCC"/>
      <path fill-rule="evenodd" d="M278.6,326.9c79.9,0,145,18.4,148.3,41.4l-0.1,0.4c-2.3,14.2-21.2,23.6-29.9,27.5&#10;&#9;&#9;&#9;&#9;l0,0c-28.5-11.3-70.9-18.5-118.2-18.5c-47.3,0-89.7,7.2-118.2,18.5l-0.3-0.1c-9.9-4.4-27.1-13.8-29.7-28.3&#10;&#9;&#9;&#9;&#9;C134.4,345,199.2,326.9,278.6,326.9" fill="#99CCCC"/>

      <!-- gradients -->
      <path fill-rule="evenodd" d="M 426.739 363.904 C 426.839 363.504 426.939 363.204 426.939 362.804 L 426.939 414.904 C 426.939 442.704 360.539 465.204 278.539 465.204 C 196.539 465.204 130.139 442.704 130.139 414.904 L 130.139 361.004 L 130.139 361.304 C 131.539 406.304 271.939 411.304 278.539 411.304 C 300.139 411.304 419.939 404.904 426.739 363.904" style="fill: url('#gradient-1');"/>
      <path fill-rule="evenodd" d="M 277.397 326.384 C 357.297 326.384 423.468 344.606 426.768 367.606 L 427.204 367.649 C 424.904 381.849 400.293 390.178 391.593 394.078 C 363.093 382.778 324.797 377.184 277.497 377.184 C 230.197 377.184 187.797 384.384 159.297 395.684 L 164.733 393.345 C 154.833 388.945 133.996 381.084 131.396 366.584 C 135.296 343.784 197.997 326.384 277.397 326.384" style="fill-opacity: 0.73; fill: url('#gradient-0');"/>
    </g>
  </g>
</svg>